# xmcd
#
# Track frame offsets:
# 150
# 12300
# 25754
# 38786
# 50662
# 63019
# 74721
# 87547
# 100254
# 112245
# 124923
# 136406
# 149016
# 162549
# 174026
# 186530
#
# Disc length: 2615 seconds
#
#
# Revision: 1
# Processed by: cddbd v1.5.1PL2 Copyright (c) Steve Scherf et al.
# Submitted via: FreeRIP 2.944 
#
DISCID=f20a3510
DTITLE=Lightnin'_Hopkins - Discover Blues - Lightnin'_Hopkins - Disk 3
DYEAR=1955
DGENRE=Blues
TTITLE0=Mistreater Blues
TTITLE1=Last Affair
TTITLE2=Jake Head Boogie
TTITLE3=Beggin' You To Stay
TTITLE4=Woman Change Your Ways
TTITLE5=T-Model Blues
TTITLE6=Baby Please Don't Go
TTITLE7=Lightnin's Boogie
TTITLE8=Someday Baby
TTITLE9=Picture On The Wall
TTITLE10=Big Mama Jump
TTITLE11=Fast Mail Rambler
TTITLE12=Katie May
TTITLE13=Let Me Play With Your Poodle
TTITLE14=Short Haired Woman
TTITLE15=Feel So Bad
EXTD=1946 - 1953
EXTT0=
EXTT1=
EXTT2=
EXTT3=
EXTT4=
EXTT5=
EXTT6=
EXTT7=
EXTT8=
EXTT9=
EXTT10=
EXTT11=
EXTT12=
EXTT13=
EXTT14=
EXTT15=
PLAYORDER=
